<svg width="650" height="356" viewBox="0 0 650 356" fill="none" xmlns="http://www.w3.org/2000/svg">
<path d="M230.5 264H87L59.5 356H0.500001L88 72.5C93.6667 53.8333 99.5 39.3333 105.5 29C111.833 18.6666 119.167 11.3333 127.5 6.99999C135.833 2.33333 146.333 -6.19888e-06 159 -6.19888e-06C171.333 -6.19888e-06 181.667 2.33333 190 6.99999C198.333 11.3333 205.667 18.6666 212 29C218.333 39.3333 224.333 53.8333 230 72.5L317 356H258L230.5 264ZM217.5 220L174 73.5C172 66.8333 169.833 62 167.5 59C165.5 56 162.667 54.5 159 54.5C155.333 54.5 152.333 56 150 59C147.667 62 145.5 66.8333 143.5 73.5L100 220H217.5ZM649.844 356H587.344L563.844 274.5C559.177 258.167 554.344 245.5 549.344 236.5C544.344 227.167 537.344 220.167 528.344 215.5C519.677 210.833 507.844 208.5 492.844 208.5H431.844V356H372.844V5.99998H517.344C556.677 5.99998 586.01 14.3333 605.344 31C624.677 47.6667 634.344 72.8333 634.344 106.5C634.344 130.167 628.344 149.167 616.344 163.5C604.344 177.833 587.51 186.833 565.844 190.5C582.177 196.167 594.677 205.833 603.344 219.5C612.01 233.167 619.677 251.5 626.344 274.5L649.844 356ZM517.344 162C534.677 162 548.677 157.333 559.344 148C570.01 138.667 575.344 125.167 575.344 107.5C575.344 89.5 570.01 75.8333 559.344 66.5C548.677 57.1666 534.677 52.5 517.344 52.5H431.844V162H517.344Z" fill="white"/>
</svg>
