<svg width="43" height="16" viewBox="0 0 43 16" fill="none" xmlns="http://www.w3.org/2000/svg">
<path d="M8.97804 0H9.67496L12.9136 6.37209L8.19912 16H0L8.97804 0ZM18.202 13.1628H11.3558L13.0776 9.5814H16.3572L11.5198 0H19.022L28 16H19.6369L18.202 13.1628Z" fill="white"/>
<path d="M21 0H28.5862V16H21V0ZM31.6966 10.5581H30.1793V7H31.469C32.2529 7 32.8471 6.9845 33.2517 6.95349C33.6563 6.90698 33.9724 6.82946 34.2 6.72093C34.4023 6.6124 34.5414 6.44961 34.6172 6.23256C34.6931 6.0155 34.731 5.69767 34.731 5.27907C34.731 4.86046 34.6931 4.54264 34.6172 4.32558C34.5414 4.09302 34.4023 3.92248 34.2 3.81395C33.9977 3.70543 33.6943 3.63566 33.2897 3.60465C32.9103 3.57364 32.3034 3.55814 31.469 3.55814H30.1793V0H34.0862C35.8816 0 37.3356 0.108527 38.4483 0.325581C39.5609 0.542636 40.4207 0.875969 41.0276 1.32558C41.5839 1.74419 41.9506 2.26357 42.1276 2.88372C42.3299 3.50388 42.431 4.30232 42.431 5.27907C42.431 6.53488 42.2414 7.50388 41.8621 8.18605C41.331 9.05426 40.3954 9.66667 39.0552 10.0233L43 16H35.0345L31.6966 10.5581Z" fill="white"/>
</svg>
